<?xml version="1.0" encoding="UTF-8"?>
<svg id="Layer_2" data-name="Layer 2" xmlns="http://www.w3.org/2000/svg" xmlns:xlink="http://www.w3.org/1999/xlink" viewBox="0 0 794.44 100.74">
  <defs>
    <style>
      .cls-1 {
        letter-spacing: -.02em;
      }

      .cls-2 {
        font-family: ProximaNova-Bold, 'Proxima Nova';
        font-size: 33.88px;
        font-weight: 700;
      }

      .cls-2, .cls-3 {
        fill: #fff;
      }

      .cls-4 {
        letter-spacing: 0em;
      }

      .cls-5 {
        fill: #7d9650;
      }

      .cls-5, .cls-3, .cls-6 {
        stroke-width: 0px;
      }

      .cls-7 {
        filter: url(#outer-glow-1);
      }

      .cls-8 {
        letter-spacing: 0em;
      }

      .cls-9 {
        letter-spacing: 0em;
      }

      .cls-10 {
        letter-spacing: -.06em;
      }

      .cls-11 {
        letter-spacing: -.01em;
      }

      .cls-6 {
        fill: #355d66;
      }
    </style>
    <filter id="outer-glow-1" filterUnits="userSpaceOnUse">
      <feOffset dx="0" dy="0"/>
      <feGaussianBlur result="blur" stdDeviation="6"/>
      <feFlood flood-color="#56604c" flood-opacity="1"/>
      <feComposite in2="blur" operator="in"/>
      <feComposite in="SourceGraphic"/>
    </filter>
  </defs>
  <g id="Layer_1-2" data-name="Layer 1" class="cls-7">
    <g id="Layer_2-2" data-name="Layer 2">
      <g>
        <path class="cls-5" d="m0,88.28V0h43.41c16.28,0,25.15,10.06,25.15,22.5,0,10.98-7.15,18.53-15.36,20.24,9.54,1.45,17.08,10.86,17.08,21.57,0,13.76-9,23.96-25.67,23.96H0ZM52.67,25.01c0-6.48-4.51-11.38-12.31-11.38H15.48v22.76h24.89c7.8,0,12.31-4.63,12.31-11.39m1.71,37.32c0-6.61-4.63-12.31-13.37-12.31H15.48v24.61h25.54c8.33,0,13.37-4.63,13.37-12.31"/>
        <path class="cls-5" d="m303.71,88.28l-6.48-17.08h-40.5l-6.48,17.08h-17.61L267.31,0h19.32l34.67,88.28h-17.6Zm-26.74-72.79l-15.88,42.09h31.77l-15.88-42.09Z"/>
        <g>
          <polygon class="cls-5" points="136.52 50.03 136.52 74.64 181.53 74.64 181.53 88.28 121.05 88.28 121.05 0 181.53 0 181.53 13.64 136.52 13.64 136.52 36.4 136.52 50.03"/>
          <polygon class="cls-6" points="180.5 44.14 156.48 30.27 156.48 58 180.5 44.14"/>
        </g>
      </g>
      <g>
        <g>
          <polygon class="cls-3" points="375.01 5.28 382.36 15.34 384.75 15.34 384.75 1.28 382.28 1.28 382.28 11.02 375.08 1.28 372.54 1.28 372.54 15.34 375.01 15.34 375.01 5.28"/>
          <path class="cls-3" d="m393.47,15.6c1.61,0,3.1-.53,4.14-1.5l-1.01-1.45c-.74.74-1.9,1.14-2.91,1.14-1.92,0-3.06-1.29-3.23-2.8h7.86v-.55c0-3.21-1.94-5.53-5.01-5.53s-5.18,2.38-5.18,5.34c0,3.23,2.26,5.36,5.34,5.36Zm-.19-8.88c2.01,0,2.83,1.48,2.89,2.68h-5.75c.08-1.22.97-2.68,2.85-2.68Z"/>
          <polygon class="cls-3" points="413.63 5.16 411.48 12.56 409.07 5.16 407.11 5.16 404.68 12.56 402.52 5.16 400.22 5.16 403.39 15.34 405.71 15.34 408.08 7.88 410.46 15.34 412.79 15.34 415.96 5.16 413.63 5.16"/>
          <polygon class="cls-3" points="427.58 9.19 434.91 9.19 434.91 15.34 437.38 15.34 437.38 1.28 434.91 1.28 434.91 7.01 427.58 7.01 427.58 1.28 425.11 1.28 425.11 15.34 427.58 15.34 427.58 9.19"/>
          <path class="cls-3" d="m444.3,8.89c-1.67,0-3.53.97-3.53,3.33,0,2.23,1.88,3.37,3.53,3.37,1.35,0,2.56-.49,3.32-1.37v1.12h2.22v-6.77c0-2.72-1.99-3.67-4.27-3.67-1.63,0-3.1.51-4.29,1.65l.93,1.54c.87-.89,1.88-1.31,3.02-1.31,1.4,0,2.39.72,2.39,1.9v1.52c-.76-.87-1.92-1.31-3.32-1.31Zm3.32,4.13c-.53.7-1.48,1.06-2.43,1.06-1.25,0-2.2-.72-2.2-1.83s.95-1.83,2.2-1.83c.95,0,1.9.36,2.43,1.05v1.56Z"/>
          <path class="cls-3" d="m466.29,8.7v6.64h2.22v-7.36c0-2.07-1.08-3.08-2.94-3.08-1.54,0-2.89.95-3.46,1.86-.34-1.1-1.27-1.86-2.79-1.86s-2.89,1.01-3.34,1.62v-1.37h-2.22v10.18h2.22v-7.13c.46-.65,1.37-1.35,2.37-1.35,1.2,0,1.67.74,1.67,1.83v6.64h2.22v-7.13c.44-.67,1.37-1.35,2.37-1.35,1.2,0,1.69.74,1.69,1.83Z"/>
          <path class="cls-3" d="m474.64,13.93c.84,1.07,1.98,1.67,3.27,1.67,2.64,0,4.52-2,4.52-5.36s-1.88-5.34-4.52-5.34c-1.33,0-2.51.63-3.27,1.65v-1.39h-2.22v14.06h2.22v-5.29Zm0-5.71c.51-.76,1.58-1.35,2.62-1.35,1.75,0,2.89,1.39,2.89,3.37s-1.14,3.39-2.89,3.39c-1.04,0-2.13-.63-2.62-1.39v-4.03Z"/>
          <path class="cls-3" d="m489.28,13.82c-1.31,0-2.72-.67-3.44-1.41l-1.01,1.58c1.06,1.03,2.62,1.6,4.37,1.6,2.75,0,4.25-1.37,4.25-3.18,0-4.05-6.17-2.7-6.17-4.49,0-.72.72-1.27,1.88-1.27,1.29,0,2.41.55,3.02,1.22l.93-1.56c-.91-.8-2.22-1.41-3.95-1.41-2.58,0-4.01,1.41-4.01,3.08,0,3.92,6.17,2.49,6.17,4.49,0,.8-.7,1.35-2.03,1.35Z"/>
          <path class="cls-3" d="m498.94,8.22c.51-.67,1.48-1.35,2.62-1.35,1.25,0,2.05.46,2.05,2.07v6.41h2.22v-7.21c0-2.09-1.1-3.23-3.3-3.23-1.61,0-2.91.82-3.59,1.62V1.28h-2.22v14.07h2.22v-7.13Z"/>
          <path class="cls-3" d="m510.85,3.91c.76,0,1.37-.61,1.37-1.37s-.61-1.37-1.37-1.37-1.37.61-1.37,1.37.61,1.37,1.37,1.37Z"/>
          <rect class="cls-3" x="509.73" y="5.16" width="2.22" height="10.18"/>
          <path class="cls-3" d="m518.09,8.41c.44-.74,1.69-1.37,2.64-1.37.27,0,.49.02.68.06v-2.19c-1.31,0-2.53.76-3.32,1.73v-1.48h-2.22v10.18h2.22v-6.94Z"/>
          <path class="cls-3" d="m533.13,14.1l-1.01-1.45c-.74.74-1.9,1.14-2.92,1.14-1.92,0-3.06-1.29-3.23-2.8h7.86v-.55c0-3.21-1.94-5.53-5.01-5.53s-5.18,2.38-5.18,5.34c0,3.23,2.26,5.36,5.34,5.36,1.61,0,3.1-.53,4.14-1.5Zm-4.33-7.38c2.01,0,2.83,1.48,2.89,2.68h-5.75c.08-1.22.97-2.68,2.85-2.68Z"/>
        </g>
        <text class="cls-2" transform="translate(372.54 55.62)"><tspan class="cls-8" x="0" y="0">OUTDOOR RECRE</tspan><tspan class="cls-10" x="285.49" y="0">A</tspan><tspan class="cls-9" x="306.67" y="0">TION </tspan></text>
        <text class="cls-2" transform="translate(372.54 88.27)"><tspan class="cls-8" x="0" y="0">INDU</tspan><tspan class="cls-4" x="83.66" y="0">S</tspan><tspan class="cls-9" x="103.92" y="0">T</tspan><tspan class="cls-11" x="123.81" y="0">R</tspan><tspan class="cls-9" x="145.15" y="0">Y DEVE</tspan><tspan class="cls-1" x="263.71" y="0">L</tspan><tspan class="cls-8" x="280.68" y="0">OPMENT</tspan></text>
      </g>
    </g>
  </g>
</svg>