<?xml version="1.0" encoding="utf-8"?>
<!-- Generator: Adobe Illustrator 27.5.0, SVG Export Plug-In . SVG Version: 6.00 Build 0)  -->
<svg version="1.1" id="Layer_1" xmlns="http://www.w3.org/2000/svg" xmlns:xlink="http://www.w3.org/1999/xlink" x="0px" y="0px"
	 viewBox="0 0 16 16" style="enable-background:new 0 0 16 16;" xml:space="preserve">
<style type="text/css">
	.st0{opacity:0.15;fill-rule:evenodd;clip-rule:evenodd;enable-background:new    ;}
	.st1{fill:#FFFFFF;}
	.st2{opacity:0.3;fill-rule:evenodd;clip-rule:evenodd;enable-background:new    ;}
	.st3{fill:none;}
</style>
<path class="st0" d="M15,6.5C15,7.3,14.3,8,13.5,8c-0.2,0-0.4,0-0.5-0.1c-0.1-0.8-0.3-1.5-0.7-2.2c0.4-0.7,1.4-0.9,2.1-0.5
	C14.7,5.5,15,6,15,6.5z M3.3,5c0.5-0.6,1.1-1,1.7-1.4c0,0,0-0.1,0-0.1C5,2.7,4.3,2,3.5,2S2,2.7,2,3.5C2,4.2,2.5,4.9,3.3,5z M3.3,12
	c-0.8,0.1-1.4,0.9-1.3,1.7c0.1,0.8,0.9,1.4,1.7,1.3C4.5,14.9,5,14.2,5,13.5c0,0,0-0.1,0-0.1C4.3,13.1,3.8,12.6,3.3,12z"/>
<path class="st1" d="M5,13.4c0.3,0.2,0.6,0.3,1,0.4c-0.2,1.4-1.4,2.4-2.8,2.2S0.9,14.6,1,13.2c0.1-1,0.8-1.8,1.7-2.1
	c0.2,0.3,0.4,0.6,0.6,0.9c-0.8,0.1-1.4,0.9-1.3,1.7c0.1,0.8,0.9,1.4,1.7,1.3C4.5,14.9,5,14.2,5,13.5C5,13.5,5,13.4,5,13.4z M2.7,5.9
	C2.9,5.5,3.1,5.2,3.3,5C2.5,4.9,1.9,4.1,2,3.3S2.9,1.9,3.7,2C4.5,2.1,5,2.8,5,3.5c0,0,0,0.1,0,0.1c0.3-0.2,0.6-0.3,1-0.4
	C5.8,1.9,4.6,0.9,3.2,1S0.9,2.4,1,3.8C1.1,4.7,1.8,5.5,2.7,5.9L2.7,5.9z M12,8.5C12,11,10,13,7.5,13S3,11,3,8.5S5,4,7.5,4
	S12,6,12,8.5z M11,8.5C11,6.6,9.4,5,7.5,5S4,6.6,4,8.5S5.6,12,7.5,12C9.4,12,11,10.4,11,8.5z M13.5,4c-0.7,0-1.4,0.3-1.9,0.9
	c0.2,0.3,0.4,0.5,0.6,0.8c0.4-0.7,1.4-0.9,2.1-0.5s0.9,1.4,0.5,2.1c-0.4,0.6-1.2,0.9-1.8,0.6c0,0.2,0,0.4,0,0.6c0,0.1,0,0.3,0,0.4
	c1.3,0.3,2.7-0.6,3-1.9s-0.6-2.7-1.9-3C13.9,4,13.7,4,13.5,4z"/>
<path class="st2" d="M11,8.5c0,1.9-1.6,3.5-3.5,3.5S4,10.4,4,8.5S5.6,5,7.5,5C9.4,5,11,6.6,11,8.5z"/>
<path class="st3" d="M0,0h16v16H0V0z"/>
</svg>
