<?xml version="1.0" encoding="utf-8"?>
<!-- Generator: Adobe Illustrator 27.5.0, SVG Export Plug-In . SVG Version: 6.00 Build 0)  -->
<svg version="1.1" id="landmark" xmlns="http://www.w3.org/2000/svg" xmlns:xlink="http://www.w3.org/1999/xlink" x="0px" y="0px"
	 viewBox="0 0 15 15" style="enable-background:new 0 0 15 15;" xml:space="preserve">
<style type="text/css">
	.st0{fill:#FFFAA6;}
</style>
<path class="st0" d="M12.5,12H12v-0.5c0-0.3-0.2-0.5-0.5-0.5H11V6h1l1-2c-1,0.1-2,0.1-3,0C9.2,3.4,8.6,2.8,8,2V1.5
	C8,1.2,7.8,1,7.5,1S7,1.2,7,1.5V2C6.4,2.8,5.8,3.4,5,4C4,4.1,3,4.1,2,4l1,2h1v5H3.5C3.2,11,3,11.2,3,11.5V12H2.5
	C2.2,12,2,12.2,2,12.5V13h11v-0.5C13,12.2,12.8,12,12.5,12z M7,11H5V6h2V11z M10,11H8V6h2V11z"/>
</svg>
