<?xml version="1.0" encoding="utf-8"?>
<!-- Generator: Adobe Illustrator 27.5.0, SVG Export Plug-In . SVG Version: 6.00 Build 0)  -->
<svg version="1.1" id="Layer_1" xmlns="http://www.w3.org/2000/svg" xmlns:xlink="http://www.w3.org/1999/xlink" x="0px" y="0px"
	 viewBox="0 0 24 24" style="enable-background:new 0 0 24 24;" xml:space="preserve">
<style type="text/css">
	.st0{fill:#FFFFFF;}
	.st1{fill:none;}
</style>
<path class="st0" d="M12.5,2.2C6.8,2.2,2.2,6.8,2.2,12.5s4.6,10.3,10.3,10.3s10.3-4.6,10.3-10.3l0,0C22.8,6.8,18.2,2.2,12.5,2.2
	C12.5,2.2,12.5,2.2,12.5,2.2z M12.5,5.5c0.6,0,1,0.4,1,1s-0.4,1-1,1s-1-0.4-1-1C11.5,5.9,11.9,5.5,12.5,5.5z M14,19h-3v-1h1v-8h-1V9
	h2v9h1V19z"/>
<path class="st1" d="M0,0h24v24H0V0z"/>
</svg>
