<?xml version="1.0" encoding="utf-8"?>
<!-- Generator: Adobe Illustrator 27.5.0, SVG Export Plug-In . SVG Version: 6.00 Build 0)  -->
<svg version="1.1" id="natural" xmlns="http://www.w3.org/2000/svg" xmlns:xlink="http://www.w3.org/1999/xlink" x="0px" y="0px"
	 viewBox="0 0 15 15" style="enable-background:new 0 0 15 15;" xml:space="preserve">
<style type="text/css">
	.st0{fill:#B0FFC6;}
</style>
<path class="st0" d="M8.2,5h1.9c0.2,0,0.4-0.2,0.4-0.4c0-0.1,0-0.2-0.1-0.2L7.8,0.9c-0.1-0.2-0.4-0.2-0.5,0c0,0,0,0,0,0L4.6,4.4
	C4.5,4.4,4.5,4.5,4.5,4.6C4.5,4.8,4.7,5,4.9,5h1.9L2.8,8.8C2.8,8.9,2.8,9,2.7,9c0,0.2,0.2,0.4,0.4,0.4c0,0,0,0,0,0h2.2L3,11.7
	c-0.1,0.1-0.1,0.4,0,0.5c0.1,0.1,0.2,0.1,0.3,0.1h3.5v1.5h1.5v-1.5h3.5c0.2,0,0.4-0.2,0.4-0.4c0-0.1,0-0.2-0.1-0.3L9.7,9.4h2.2
	c0.2,0,0.4-0.2,0.4-0.4c0-0.1,0-0.2-0.1-0.2L8.2,5z"/>
</svg>
