<?xml version="1.0" encoding="UTF-8"?>
<svg id="Layer_2" data-name="Layer 2" xmlns="http://www.w3.org/2000/svg" xmlns:xlink="http://www.w3.org/1999/xlink" viewBox="0 0 196.67 96.43">
  <defs>
    <style>
      .cls-1 {
        fill: #467781;
      }

      .cls-1, .cls-2, .cls-3 {
        stroke-width: 0px;
      }

      .cls-2 {
        fill: none;
      }

      .cls-3 {
        fill: #95a85b;
      }

      .cls-4 {
        clip-path: url(#clippath);
      }
    </style>
    <clipPath id="clippath">
      <rect class="cls-2" y="0" width="196.67" height="96.43"/>
    </clipPath>
  </defs>
  <g id="Layer_1-2" data-name="Layer 1">
    <g id="Layer_2-2" data-name="Layer 2">
      <g>
        <path class="cls-1" d="m.62,56.06h1.67v-13.86H0v-2.85h5.22l7.58,10.37c.8,1.09,1.29,1.87,1.52,2.63h.05v-10.15h-1.64v-2.85h6.5v2.85h-1.77v16.71h-2.78l-8.56-11.68c-.44-.59-.8-1.23-.85-1.51h-.05v10.34h1.75v2.85H.62v-2.85h0Z"/>
        <path class="cls-1" d="m28.43,49.8c0-2.01-1.05-3.16-2.73-3.16s-2.6,1.17-2.75,3.16h5.48Zm-5.45,2.68c.1,2.32,1.75,3.75,4.27,3.75,1.72,0,2.83-.31,4.34-1.01l-.18,3.1c-1.67.67-3.14.92-4.96.92-5.19,0-7.38-3.52-7.38-7.57,0-4.56,2.54-7.71,6.76-7.71,4.63,0,6.5,3.8,6.5,8.52h-9.36Z"/>
        <path class="cls-1" d="m49.34,44.29h6.43v2.85h-1.24l-4.65,11.77h-3.75l-1.8-5.06c-.13-.36-.26-.73-.31-1.26h-.05c-.08.53-.18.89-.33,1.26l-2.03,5.06h-3.75l-4.53-11.77h-1.26v-2.85h6.43v2.85h-1.26c.23.42.44.98.64,1.62l1.64,4.95c.18.56.31,1.06.41,1.68h.05c.13-.59.36-1.12.59-1.71l2-4.86-.62-1.68h-1.44v-2.85h6.53v2.85h-1.39c.23.42.44.98.64,1.62l1.67,4.95c.23.67.31,1.06.41,1.68h.05c.1-.61.18-1.01.41-1.68l1.62-4.95c.21-.64.41-1.2.64-1.62h-1.77v-2.85h0Z"/>
        <polygon class="cls-1" points="75.07 42.19 73.45 42.19 73.45 39.34 80.44 39.34 80.44 42.19 78.82 42.19 78.82 56.06 80.44 56.06 80.44 58.91 73.45 58.91 73.45 56.06 75.07 56.06 75.07 50.64 67.67 50.64 67.67 56.06 69.28 56.06 69.28 58.91 62.29 58.91 62.29 56.06 63.91 56.06 63.91 42.19 62.29 42.19 62.29 39.34 69.28 39.34 69.28 42.19 67.67 42.19 67.67 47.62 75.07 47.62 75.07 42.19 75.07 42.19"/>
        <path class="cls-1" d="m88.88,52.7c-2.93,0-3.86.67-3.86,1.93,0,.87.56,1.76,1.98,1.76s2.88-1.01,2.88-3.69h-1Zm1.06-3.1c0-2.21-.85-2.79-2.55-2.79-.51,0-1.62.17-2.24.42v1.96h-3.09v-3.72c.87-.53,2.98-1.51,5.37-1.51,3.6,0,5.89,1.37,5.89,5.62,0,2.4-.08,4.42-.13,6.48h1.52v2.85h-4.53v-.9c0-.95.05-1.45.18-2.01h-.05c-.9,2.21-2.13,3.24-4.4,3.24-3.04,0-4.5-1.96-4.5-4.25,0-2.09,1.29-3.46,2.7-4.02,1.36-.53,3.19-.67,5.81-.67v-.7h0Z"/>
        <path class="cls-1" d="m113.58,56.06h1.31v-6.01c0-2.01-.98-2.74-2.34-2.74-1.75,0-2.85,1.54-2.85,3.89v4.86h1.54v2.85h-6.45v-2.85h1.31v-6.01c0-2.01-.98-2.74-2.34-2.74-1.9,0-2.85,1.68-2.85,3.89v4.86h1.54v2.85h-6.61v-2.85h1.47v-8.92h-1.75v-2.85h5.27c0,1.01,0,1.96-.21,2.96h.05c.75-2.12,2.42-3.3,4.65-3.3s3.6,1.12,3.96,3.3h.05c.64-2.04,2.13-3.3,4.5-3.3,3.19,0,4.65,2.21,4.65,5.7v6.4h1.54v2.85h-6.45v-2.85h0Z"/>
        <path class="cls-1" d="m125.74,55.67c.49.2,1.49.39,2.29.39,2.6,0,3.73-2.38,3.73-4.98,0-2.01-.67-3.94-2.9-3.94-2.39,0-3.11,1.87-3.11,3.69v4.84h0Zm-3.52-8.53h-2.06v-2.85h5.6c.03.92-.1,1.84-.23,2.77h.05c.82-1.98,2.31-3.1,4.58-3.1,2.96,0,5.19,2.32,5.19,6.68,0,4-1.77,8.61-7.51,8.61-.59,0-1.47-.11-2.03-.25v4.08h1.54v2.85h-6.61v-2.85h1.47v-15.93h0Z"/>
        <path class="cls-1" d="m144.41,47.06c-.72-.28-1.41-.42-2.08-.42-1.65,0-2.42.73-2.42,1.54,0,.7.18.98,1.21,1.15l2.83.45c3.09.48,4.37,1.76,4.37,4.42s-1.67,5.06-6.35,5.06c-1.62,0-3.86-.36-5.3-.92v-4.11h3.24v1.7c.59.22,1.62.48,2.39.48s2.62-.25,2.62-1.79c0-.81-.46-1.23-2.03-1.48l-3.03-.5c-2.34-.39-3.34-1.79-3.34-3.89,0-3.61,3.13-4.78,5.91-4.78,1.44,0,3.24.25,5.22.98v3.61h-3.24v-1.48h0Z"/>
        <path class="cls-1" d="m150.68,40.27h-2.06v-2.85h5.58v6.88c0,1.01,0,1.95-.2,3.02h.05c.67-1.93,2.31-3.35,4.65-3.35,3.19,0,4.65,2.21,4.65,5.7v6.4h1.54v2.85h-6.61v-2.85h1.47v-6.01c0-2.01-.98-2.74-2.34-2.74-2.19,0-3.14,1.68-3.14,3.88v4.86h1.54v2.85h-6.61v-2.85h1.47v-15.79h0Z"/>
        <path class="cls-1" d="m169.06,37c1.49,0,2.42.98,2.42,2.43s-.93,2.43-2.42,2.43-2.42-.98-2.42-2.43.93-2.43,2.42-2.43m-1.67,10.15h-1.75v-2.85h5.35v11.77h1.54v2.85h-6.61v-2.85h1.47v-8.92h0Z"/>
        <path class="cls-1" d="m175.25,47.14h-1.75v-2.85h5.22c0,1.01-.05,1.98-.23,3.35h.05c.54-2.46,1.8-3.69,3.86-3.69.44,0,.8.08,1.18.17l-.23,3.49c-.39-.08-.8-.14-1.16-.14-1.95,0-3.34,1.45-3.34,3.86v4.72h1.7v2.85h-6.76v-2.85h1.47v-8.92h0Z"/>
        <path class="cls-1" d="m192.76,49.8c0-2.01-1.06-3.16-2.73-3.16s-2.6,1.17-2.75,3.16h5.48Zm-5.45,2.68c.1,2.32,1.75,3.75,4.27,3.75,1.72,0,2.83-.31,4.34-1.01l-.18,3.1c-1.67.67-3.14.92-4.96.92-5.19,0-7.38-3.52-7.38-7.57,0-4.56,2.54-7.71,6.76-7.71,4.63,0,6.5,3.8,6.5,8.52h-9.36Z"/>
        <path class="cls-1" d="m165.56,29.98h0l-1.69-.9-9.04-4.8c-.1.43-.46.87-.46.87-1.14,1.37-3.32,2.36-4.27,2.68-.29.09-.43.17-.76.18,0,0-.01,0-.02,0-.12,0-.3-.03-.4-.12-.09-.06-.16-.17-.15-.27.07-.33.25-.36.4-.54.38-.29,1.13-1.45,1.1-2.23-.04-2.07-1.76-2.65-4.65-2.7-2.78,0-5.61.56-11.93,2.23-1.95.51-6,1.62-10.29,1.69-.3,0-.6.02-.89.02-3.61.03-5.64-.85-5.72-2.43,0-.04-.01-.1,0-.14.02-1.73,1.85-3.14,3.64-4.7,1.5-1.29,2.8-2.32,3.81-3.2.14-.12.2-.25.2-.29-.02-.04,0,0-.17-.07,0,0-.07-.02-.19-.02-.4,0-1.25.19-2.05.48-1.74.62-4.14,1.71-6.62,3.11-2.57,1.41-4.44,2.48-6.44,3.63-1.5.88-3.67,2.21-4.26,2.53-3.07,1.63-5.97-.31-3.31-2.84,2.65-2.53-3.75.32-3.75.32-1.44.6-2.76,1.16-4,1.61-1.91.75-4.19,1.43-6.4,1.44-.09,0-.18,0-.27,0-1.53,0-2.6-.26-3.3-.7-.68-.44-.94-1.04-.93-1.61,0-.12.01-.25.03-.35.23-1.3,1.57-2.5,3.55-4.08,3.02-2.42-.12-2.59-7.97,2.19-7.86,4.78-11.67,4.99-11.67,4.99-3.68.48-5.52-1.03-2.18-4.2,3.33-3.17-4.71.4-4.71.4-.62.26-1.23.5-1.82.74-4.82,2.09-11.93,4.68-18.63,4.68-1,0-1.89-.08-2.71-.2,0,0-.73-.12-1.28-.31l-5.57,2.95-2.95,1.57c7.03.88,14.92.44,21.12-1.34,3.9-1.13,8.61-3.52,6.12-.7-3.4,3.85,9.2.66,9.2.66,7.17-1.85,12.74-4.65,11.14-1.71-1.98,3.63,7.1,2.69,14.8.59,3.19-.87,6.24-2.12,5.78-.12-.62,2.72,2.72,3.74,11.57-.47,2.76-1.31,8.67-3.98,6.7-1.09-1.78,2.61,1.11,5.3,9.31,3.72,8.2-1.58,22.33-5.76,20.83-2.51-1.8,3.91,11.43,4.08,23.76,2.25l-1.58-.84h0Z"/>
        <g class="cls-4">
          <path class="cls-3" d="m122.8,7.58c-4.98,3.98-9.97,8.62-13.23,11.85,1.74-1.01,3.92-2.25,6.19-3.46,2.91-1.48,7.58-3.71,11.9-3.72,2.35,0,4.1.71,4.1,2.03,0,.08,0,.16-.02.25-.25,1.34-2.34,2.97-3.83,4.27-1.47,1.21-2.57,2.28-3.18,3.11-.19.36-.27.65-.27.85,0,.17.06.28.14.35.1.15.57.3,1.56.3,2.67,0,5.51-.75,8.29-1.52,4.67-1.31,7.89-2.18,11-2.56-5.37-3.64-22.45-11.93-22.45-11.93-.07.06-.14.11-.21.17"/>
          <path class="cls-3" d="m102.2,0s-5.49,2.13-11.61,5.65c0,0-3.89-1.85-6.18-2.55,0,0-15.62,5.35-43.03,20.72,4.33-.06,14.97-1.43,31.55-11.19,22.21-13.07,3.25,5.73,3.25,5.73,0,0,30.33-13.07,20.94-4.36-4.93,4.58-7.82,8.88-4.35,7.71,2.54-.62,9.93-3.32,24.1-14.84,0,0-6.88-4.27-14.67-6.87"/>
        </g>
        <polygon class="cls-1" points="21.39 96.43 21.39 79.62 22.85 79.62 22.85 95.12 30.99 95.12 30.99 96.43 21.39 96.43 21.39 96.43"/>
        <polygon class="cls-1" points="38.99 96.43 38.99 79.62 40.43 79.62 40.43 96.43 38.99 96.43 38.99 96.43"/>
        <polygon class="cls-1" points="54.82 96.43 47.94 79.62 49.6 79.62 55.73 94.82 61.83 79.62 63.5 79.62 56.61 96.43 54.82 96.43 54.82 96.43"/>
        <polygon class="cls-1" points="71.01 96.43 71.01 79.62 81.68 79.62 81.68 80.93 72.45 80.93 72.45 87.16 81.5 87.16 81.5 88.47 72.45 88.47 72.45 95.12 81.68 95.12 81.68 96.43 71.01 96.43 71.01 96.43"/>
        <polygon class="cls-1" points="101.85 96.43 101.85 79.62 112.52 79.62 112.52 80.93 103.29 80.93 103.29 87.16 112.34 87.16 112.34 88.47 103.29 88.47 103.29 96.43 101.85 96.43 101.85 96.43"/>
        <path class="cls-1" d="m130.45,84.53c0-2.12-1.49-3.61-3.73-3.61h-4.71v7.23h4.71c2.24,0,3.73-1.51,3.73-3.63h0Zm-.03,11.9l-4.71-6.96h-3.71v6.96h-1.44v-16.82h6.28c2.9,0,5.12,1.84,5.12,4.92s-2.14,4.74-4.66,4.84l4.87,7.06h-1.74Z"/>
        <polygon class="cls-1" points="140.58 96.43 140.58 79.62 151.25 79.62 151.25 80.93 142.02 80.93 142.02 87.16 151.07 87.16 151.07 88.47 142.02 88.47 142.02 95.12 151.25 95.12 151.25 96.43 140.58 96.43 140.58 96.43"/>
        <polygon class="cls-1" points="159.85 96.43 159.85 79.62 170.51 79.62 170.51 80.93 161.29 80.93 161.29 87.16 170.34 87.16 170.34 88.47 161.29 88.47 161.29 95.12 170.51 95.12 170.51 96.43 159.85 96.43 159.85 96.43"/>
      </g>
    </g>
  </g>
</svg>