<?xml version="1.0" encoding="utf-8"?>
<!-- Generator: Adobe Illustrator 27.5.0, SVG Export Plug-In . SVG Version: 6.00 Build 0)  -->
<svg version="1.1" id="Layer_1" xmlns="http://www.w3.org/2000/svg" xmlns:xlink="http://www.w3.org/1999/xlink" x="0px" y="0px"
	 viewBox="0 0 24 24" style="enable-background:new 0 0 24 24;" xml:space="preserve">
<style type="text/css">
	.st0{fill:#FFFFFF;}
	.st1{fill:none;}
</style>
<path class="st0" d="M21.5,10H18V5.6L13.3,1H6v9H2.5C1.7,10,1,10.7,1,11.5v8C1,20.3,1.7,21,2.5,21H6v2h12v-2h3.5
	c0.8,0,1.5-0.7,1.5-1.5v-8C23,10.7,22.3,10,21.5,10z M17,6h-4V2L17,6z M7,2h5v5h5v3H7V2z M17,22H7v-5h10V22z M22,19.5
	c0,0.3-0.2,0.5-0.5,0.5H18v-2h1v-2H5v2h1v2H2.5C2.2,20,2,19.8,2,19.5v-8C2,11.2,2.2,11,2.5,11h19c0.3,0,0.5,0.2,0.5,0.5V19.5z
	 M15,20v1H9v-1H15z M9,19v-1h6v1H9z M19,12h1v1h-1V12z"/>
<path class="st1" d="M0,0h24v24H0V0z"/>
</svg>
