<?xml version="1.0" encoding="utf-8"?>
<!-- Generator: Adobe Illustrator 27.5.0, SVG Export Plug-In . SVG Version: 6.00 Build 0)  -->
<svg version="1.1" id="viewpoint" xmlns="http://www.w3.org/2000/svg" xmlns:xlink="http://www.w3.org/1999/xlink" x="0px" y="0px"
	 viewBox="0 0 15 15" style="enable-background:new 0 0 15 15;" xml:space="preserve">
<style type="text/css">
	.st0{fill:#71B2FF;}
</style>
<path id="cf3b542b-d2af-4732-9b92-9e3dc05e460f" class="st0" d="M6,8.4C5.8,8.6,5.7,8.7,5.6,8.9L1,5.4C1.4,4.8,2,4.3,2.5,3.9L6,8.4z
	 M12.5,3.9L9,8.4c0.2,0.1,0.3,0.3,0.4,0.4L14,5.4C13.6,4.8,13,4.3,12.5,3.9z M7.3,10c-0.8,0.1-1.4,0.9-1.3,1.7s0.9,1.4,1.7,1.3
	c0.8-0.1,1.4-0.9,1.3-1.7c0,0,0,0,0,0l0,0C8.9,10.5,8.1,9.9,7.3,10z M6.4,2.2C5.7,2.3,5,2.5,4.4,2.8l2.2,5.3C6.8,8,7,8,7.2,7.9
	L6.4,2.2z M8.6,2.2L7.8,7.9C8,8,8.2,8,8.4,8.1l2.2-5.3C10,2.5,9.3,2.3,8.6,2.2z"/>
</svg>
