<?xml version="1.0" encoding="UTF-8"?>
<svg id="Layer_2" data-name="Layer 2" xmlns="http://www.w3.org/2000/svg" viewBox="0 0 396.89 102.75">
  <defs>
    <style>
      .cls-1 {
        fill: #00758c;
      }
    </style>
  </defs>
  <g id="Layer_1-2" data-name="Layer 1-2">
    <g>
      <path class="cls-1" d="m67.84,94.09l7.24-6.12c3.43,3.75,7.24,5.74,12.24,5.74,3.87,0,6.68-1.81,6.68-4.56,0-2.12-1.56-3.37-7.43-5.74-5.68-2.31-10.74-5.37-10.74-11.8,0-8.93,7.99-14.42,17.36-14.42,7.49,0,12.67,2.56,16.36,6.49l-6.62,6.62c-3.31-3.06-6.24-4.68-10.49-4.68s-6.37,2.25-6.37,4.43c0,2.31,1.75,3.31,7.68,5.75,5.99,2.43,10.49,5.43,10.49,11.8,0,9.18-8.18,14.55-17.36,14.55-8.43,0-14.92-2.75-19.04-8.05"/>
      <path class="cls-1" d="m86.88,102.63c-8.52,0-15.24-2.85-19.42-8.24l-.28-.36,7.95-6.71.31.34c3.5,3.81,7.27,5.59,11.88,5.59,3.65,0,6.2-1.68,6.2-4.08,0-1.67-1.03-2.83-7.13-5.3-5.46-2.22-11.04-5.41-11.04-12.25,0-8.64,7.5-14.9,17.84-14.9,7.06,0,12.52,2.17,16.71,6.65l.32.34-7.27,7.27-.34-.31c-2.96-2.73-5.82-4.56-10.16-4.56-3.82,0-5.89,2.04-5.89,3.95s1.57,2.92,7.38,5.3c5.6,2.28,10.79,5.34,10.79,12.25,0,9.87-8.97,15.03-17.84,15.03m-18.38-8.47c4.06,4.98,10.24,7.51,18.38,7.51s16.88-4.83,16.88-14.07c0-5.99-4.07-8.87-10.19-11.36-5.91-2.43-7.98-3.52-7.98-6.19,0-2.38,2.4-4.91,6.85-4.91s7.47,1.79,10.48,4.5l5.96-5.96c-3.95-4.04-9.09-6.01-15.69-6.01-8.39,0-16.88,4.79-16.88,13.94,0,6.25,5.02,9.15,10.44,11.36,6.07,2.45,7.73,3.78,7.73,6.19,0,2.96-2.95,5.04-7.16,5.04-4.76,0-8.67-1.77-12.28-5.56l-6.54,5.52h0Z"/>
      <polygon class="cls-1" points="119.73 57.81 152.38 57.81 150.07 66.37 126.97 66.37 124.6 75.3 144.89 75.3 142.58 83.73 122.29 83.73 119.79 92.97 143.27 92.97 140.96 101.52 107.99 101.52 119.73 57.81 119.73 57.81"/>
      <path class="cls-1" d="m141.32,102h-33.96l.16-.61,11.83-44.06h33.65l-2.57,9.51h-23.1l-2.12,7.97h20.3l-2.57,9.39h-20.29l-2.24,8.28h23.48l-2.57,9.52h0Zm-32.71-.96h31.98l2.05-7.59h-23.48l2.76-10.2h20.29l2.05-7.47h-20.29l2.63-9.89h23.1l2.05-7.59h-31.66l-11.48,42.75h0Z"/>
      <path class="cls-1" d="m164.74,83.29c0-13.61,11.55-26.23,27.29-26.23,9.24,0,14.8,3.56,17.86,7.56l-7.12,6.31c-2.56-2.81-5.99-5.06-11.49-5.06-9.37,0-16.54,7.99-16.54,17.11,0,6.81,4.99,10.49,11.18,10.49,3.37,0,5.87-.81,7.81-1.69l2.06-7.12h-9.68l2.25-8.31h18.98l-6.18,21.79c-4.31,2.44-9.3,4.12-15.86,4.12-9.99,0-20.54-5.93-20.54-18.98"/>
      <path class="cls-1" d="m185.28,102.75c-10.13,0-21.02-6.09-21.02-19.46,0-14.73,12.46-26.71,27.77-26.71,10.18,0,15.53,4.21,18.24,7.74l.27.35-7.81,6.92-.32-.35c-3.05-3.34-6.58-4.9-11.14-4.9-8.86,0-16.07,7.46-16.07,16.63,0,6.08,4.2,10.01,10.7,10.01,3.41,0,5.84-.86,7.41-1.55l1.82-6.29h-9.67l2.51-9.27h19.99l-6.41,22.59-.17.1c-5.05,2.86-10.16,4.18-16.1,4.18m6.74-45.21c-14.78,0-26.81,11.55-26.81,25.75,0,12.71,10.4,18.5,20.06,18.5,5.69,0,10.61-1.26,15.45-3.96l5.96-20.99h-17.98l-1.99,7.34h9.69l-2.3,7.94-.2.09c-1.64.74-4.26,1.73-8,1.73-6.97,0-11.66-4.41-11.66-10.97,0-9.7,7.64-17.59,17.03-17.59,4.68,0,8.35,1.55,11.52,4.87l6.43-5.7c-2.66-3.28-7.76-7.02-17.2-7.02"/>
      <path class="cls-1" d="m220.87,57.81h15.92c6.49,0,10.93,1.44,13.86,4.37,2.18,2.19,3.37,5.25,3.37,8.8,0,4.18-1.44,7.81-4,10.37-2.44,2.43-5.81,4.25-10.12,5.25l7.43,14.92h-10.93l-6.74-13.99h-7.18l-3.75,13.99h-9.62l11.74-43.71h.02Zm12.49,21.23c3.74,0,6.93-.94,8.8-2.81,1.12-1.12,1.81-2.62,1.81-4.43,0-1.5-.44-2.56-1.38-3.5-1.18-1.19-3.31-1.81-6.37-1.81h-8.06l-3.37,12.55h8.57Z"/>
      <path class="cls-1" d="m248.12,102h-12.01l-6.74-13.99h-6.51l-3.75,13.99h-10.61l.16-.61,11.83-44.06h16.29c6.61,0,11.12,1.43,14.2,4.51,2.3,2.3,3.51,5.46,3.51,9.14,0,4.24-1.47,8.04-4.13,10.7-2.45,2.45-5.73,4.21-9.76,5.23l7.51,15.08h.01Zm-11.4-.96h9.85l-7.36-14.77.59-.14c4.12-.96,7.44-2.68,9.88-5.12,2.49-2.49,3.85-6.05,3.85-10.02,0-3.42-1.12-6.35-3.23-8.46-2.89-2.89-7.19-4.23-13.52-4.23h-15.55l-11.48,42.75h8.62l3.75-13.99h7.85l6.74,13.99h0Zm-3.36-21.52h-9.18l3.63-13.51h8.42c3.16,0,5.41.66,6.71,1.95,1.05,1.05,1.51,2.23,1.51,3.83,0,1.85-.67,3.5-1.95,4.77-1.9,1.9-5.15,2.95-9.14,2.95m-7.93-.96h7.93c3.74,0,6.74-.95,8.46-2.67,1.09-1.09,1.67-2.51,1.67-4.09,0-1.35-.37-2.29-1.23-3.16-1.11-1.11-3.14-1.67-6.03-1.67h-7.69l-3.11,11.59h0Z"/>
      <path class="cls-1" d="m257.02,82.92c0-13.05,10.61-25.85,26.29-25.85,12.05,0,19.98,8.37,19.98,19.36,0,13.05-10.61,25.85-26.29,25.85-12.05,0-19.98-8.37-19.98-19.36m36.28-5.87c0-6.49-3.93-11.11-11.11-11.11-9.18,0-15.17,8.8-15.17,16.36,0,6.49,3.93,11.12,11.12,11.12,9.18,0,15.17-8.8,15.17-16.36"/>
      <path class="cls-1" d="m277,102.75c-12.05,0-20.46-8.16-20.46-19.84,0-12.66,10.23-26.33,26.77-26.33,12.05,0,20.46,8.16,20.46,19.84,0,12.66-10.23,26.33-26.77,26.33m6.31-45.21c-15.94,0-25.81,13.17-25.81,25.37,0,11.11,8.02,18.88,19.5,18.88,15.94,0,25.81-13.17,25.81-25.37,0-11.11-8.02-18.88-19.5-18.88m-5.18,36.34c-7.15,0-11.6-4.44-11.6-11.59,0-7.97,6.43-16.84,15.65-16.84,7.15,0,11.6,4.44,11.6,11.59,0,7.96-6.43,16.84-15.65,16.84m4.06-27.47c-8.66,0-14.69,8.37-14.69,15.88,0,6.56,4.08,10.63,10.63,10.63,8.66,0,14.69-8.37,14.69-15.88,0-6.56-4.07-10.63-10.64-10.63"/>
      <path class="cls-1" d="m308.91,87.47c0-2.18.37-4.56,1.06-6.99l6.06-22.67h9.62l-6.31,23.54c-.44,1.5-.69,2.93-.69,4.75,0,4.31,2.68,7.24,7.62,7.24,2.87,0,5.25-.94,7.12-2.75,1.87-1.87,3.31-4.56,4.25-8.12l6.62-24.66h9.62l-6.99,26.04c-1.5,5.62-3.68,9.93-6.75,12.99-3.56,3.56-8.37,5.37-14.86,5.37-10.12,0-16.36-5.43-16.36-14.74"/>
      <path class="cls-1" d="m325.27,102.69c-10.54,0-16.84-5.69-16.84-15.22,0-2.19.36-4.58,1.08-7.12l6.15-23.02h10.61l-6.47,24.14c-.47,1.62-.67,2.99-.67,4.62,0,4.24,2.67,6.76,7.14,6.76,2.71,0,4.99-.88,6.78-2.61,1.83-1.83,3.22-4.49,4.12-7.89l6.71-25.02h10.61l-7.16,26.64c-1.55,5.81-3.8,10.13-6.87,13.2-3.71,3.71-8.68,5.51-15.2,5.51m-8.87-44.4l-5.96,22.31c-.69,2.46-1.04,4.77-1.04,6.87,0,8.93,5.94,14.26,15.88,14.26,6.25,0,11-1.71,14.52-5.23,2.95-2.95,5.11-7.13,6.62-12.77l6.83-25.43h-8.62l-6.52,24.31c-.94,3.57-2.41,6.37-4.37,8.33-1.98,1.92-4.49,2.89-7.46,2.89-4.99,0-8.1-2.96-8.1-7.72,0-1.72.21-3.18.71-4.88l6.14-22.93h-8.63Z"/>
      <path class="cls-1" d="m363.1,57.81h13.86c6.24,0,10.55,1.25,13.74,4.43,2.25,2.25,3.37,5.18,3.37,8.99,0,10.87-9.31,17.05-21.23,17.05h-8.3l-3.56,13.24h-9.62l11.74-43.71h0Zm10.24,22.04c6.37,0,10.68-2.87,10.68-7.81,0-1.44-.5-2.68-1.44-3.62-1.31-1.31-3.12-1.94-5.99-1.94h-6.24l-3.56,13.36h6.56-.01Z"/>
      <g>
        <path class="cls-1" d="m361.35,102h-10.61l.16-.61,11.83-44.06h14.23c6.57,0,10.91,1.41,14.08,4.57,2.36,2.36,3.51,5.42,3.51,9.33,0,10.48-8.72,17.53-21.71,17.53h-7.94l-3.56,13.24h0Zm-9.36-.96h8.62l3.56-13.24h8.67c12.41,0,20.75-6.66,20.75-16.57,0-3.65-1.06-6.48-3.23-8.65-2.97-2.97-7.1-4.29-13.4-4.29h-13.49l-11.48,42.75h0Zm21.35-20.71h-7.18l3.81-14.32h6.61c2.94,0,4.9.64,6.33,2.08,1.03,1.03,1.58,2.4,1.58,3.96,0,5.11-4.28,8.29-11.16,8.29m-5.93-.96h5.93c6.29,0,10.2-2.81,10.2-7.33,0-1.3-.45-2.43-1.29-3.28-1.24-1.24-2.99-1.8-5.66-1.8h-5.88l-3.3,12.4h0Z"/>
        <polygon class="cls-1" points="2.58 89.24 .59 100.52 12.48 100.52 63.13 54.4 2.58 89.24 2.58 89.24"/>
        <polygon class="cls-1" points="6.83 65.12 4.7 77.18 68.39 48.12 6.83 65.12 6.83 65.12"/>
      </g>
      <polygon class="cls-1" points="26.72 100.52 38.96 100.52 56.56 65.44 26.72 100.52 26.72 100.52"/>
    </g>
    <g>
      <path class="cls-1" d="m9.26.64h11.07c6.66,0,10.83,1.81,13.42,4.41,2.5,2.5,3.72,5.83,3.72,10.04,0,5.14-1.91,9.8-5.63,13.52-4.12,4.12-10,6.32-17.98,6.32H0L9.26.64Zm10.04,8.38h-2.79l-4.7,17.49h3.14c4.07,0,7.5-1.18,9.8-3.48,1.91-1.91,2.99-4.46,2.99-7.2,0-1.91-.54-3.48-1.67-4.65-1.37-1.32-3.38-2.16-6.76-2.16h-.01Z"/>
      <path class="cls-1" d="m46.6.64h27.44l-2.2,8.04h-18.03l-1.42,5.24h16.36l-2.01,7.45h-16.36l-1.47,5.49h18.32l-2.16,8.08h-27.73L46.6.64Z"/>
      <path class="cls-1" d="m76.1.64h10.34l1.91,21.56L101.87.64h10.68l-23.08,34.54h-8.82L76.1.64Z"/>
      <path class="cls-1" d="m115.59.64h27.44l-2.2,8.04h-18.03l-1.42,5.24h16.36l-2.01,7.45h-16.36l-1.47,5.49h18.32l-2.16,8.08h-27.73L115.59.64Z"/>
      <path class="cls-1" d="m148.37.64h9.51l-6.96,25.97h16.36l-2.25,8.33h-25.92L148.37.64Z"/>
      <path class="cls-1" d="m205.89,15.34c0,5.34-2.21,10.53-5.98,14.31-3.67,3.58-8.57,5.93-14.4,5.93-9.8,0-16.36-6.61-16.36-15.38,0-5.34,2.21-10.49,5.98-14.26C178.8,2.27,183.7.01,189.53.01c9.8,0,16.36,6.66,16.36,15.34h0Zm-13.03,8.92c2.11-2.11,3.38-5.19,3.38-8.13,0-4.36-2.65-7.59-7.55-7.59-2.6,0-4.8,1.03-6.52,2.74-2.11,2.16-3.38,5.24-3.38,8.18,0,4.36,2.65,7.59,7.55,7.59,2.6,0,4.8-1.08,6.52-2.79Z"/>
      <path class="cls-1" d="m215.11.64h11.17c5.68,0,9.26,1.08,11.76,3.63,1.81,1.76,2.69,4.07,2.69,6.96,0,3.67-1.22,6.76-3.67,9.21-2.94,2.94-7.59,4.65-13.33,4.65h-5.68l-2.65,9.85h-9.55L215.11.64Zm10.83,7.99h-3.53l-2.4,9.06h3.62c2.65,0,4.66-.64,6.03-1.96.88-.93,1.32-2.06,1.32-3.38,0-1.03-.29-1.81-.93-2.45-.93-.93-2.35-1.27-4.12-1.27h0Z"/>
      <path class="cls-1" d="m248.04.64h27.44l-2.21,8.04h-18.03l-1.42,5.24h16.36l-2.01,7.45h-16.36l-1.47,5.49h18.33l-2.16,8.08h-27.73L248.04.64Z"/>
      <path class="cls-1" d="m280.82.64h11.07c6.66,0,10.83,1.81,13.42,4.41s3.72,5.83,3.72,10.04c0,5.14-1.91,9.8-5.63,13.52-4.12,4.12-10,6.32-17.98,6.32h-13.87L280.82.64Zm10.04,8.38h-2.79l-4.7,17.49h3.14c4.07,0,7.5-1.18,9.8-3.48,1.91-1.91,2.99-4.46,2.99-7.2,0-1.91-.54-3.48-1.67-4.65-1.37-1.32-3.38-2.16-6.76-2.16h0Z"/>
      <path class="cls-1" d="m332.85.64h14.26c9.31,0,12.35,3.77,12.35,8.23s-2.84,7.59-7.69,8.77c3.09,1.13,5.19,3.33,5.19,6.86,0,5.88-4.95,10.44-15.58,10.44h-17.79L332.85.64Zm9.26,26.65c3.33,0,5.29-1.47,5.29-3.63,0-1.81-1.37-2.69-4.16-2.69h-6.61l-1.71,6.32h7.2-.01Zm2.74-12.98c3.48,0,5.24-1.32,5.24-3.48,0-1.62-1.22-2.55-4.17-2.55h-5.93l-1.57,6.03h6.43Z"/>
      <path class="cls-1" d="m368.48,21.61l-6.91-20.97h10.24l3.38,12.84,10.34-12.84h11.37l-19.16,22.05-3.28,12.25h-9.5l3.53-13.33h0Z"/>
    </g>
  </g>
</svg>