<?xml version="1.0" encoding="UTF-8"?>
<svg id="Layer_2" data-name="Layer 2" xmlns="http://www.w3.org/2000/svg" xmlns:xlink="http://www.w3.org/1999/xlink" viewBox="0 0 159.62 22.14">
  <defs>
    <style>
      .cls-1 {
        fill: #64605a;
      }

      .cls-1, .cls-2, .cls-3 {
        stroke-width: 0px;
      }

      .cls-4 {
        filter: url(#outer-glow-1);
      }

      .cls-2 {
        fill: none;
      }

      .cls-5 {
        clip-path: url(#clippath);
      }

      .cls-3 {
        fill: #4a80c2;
      }
    </style>
    <filter id="outer-glow-1" filterUnits="userSpaceOnUse">
      <feOffset dx="0" dy="0"/>
      <feGaussianBlur result="blur" stdDeviation="6"/>
      <feFlood flood-color="#56604c" flood-opacity="1"/>
      <feComposite in2="blur" operator="in"/>
      <feComposite in="SourceGraphic"/>
    </filter>
    <clipPath id="clippath">
      <rect class="cls-2" y="0" width="159.62" height="22.14"/>
    </clipPath>
  </defs>
  <g id="Layer_1-2" data-name="Layer 1" class="cls-4">
    <g id="Layer_2-2" data-name="Layer 2">
      <g>
        <path class="cls-1" d="m27.25,18.63l2.93-2.48c1.39,1.52,2.93,2.33,4.96,2.33,1.57,0,2.71-.73,2.71-1.85,0-.86-.63-1.37-3.01-2.33-2.3-.94-4.35-2.18-4.35-4.78,0-3.62,3.24-5.84,7.03-5.84,3.04,0,5.14,1.04,6.63,2.63l-2.68,2.68c-1.34-1.24-2.53-1.9-4.25-1.9s-2.58.91-2.58,1.8c0,.94.71,1.34,3.11,2.33,2.43.99,4.25,2.2,4.25,4.78,0,3.72-3.31,5.89-7.03,5.89-3.42,0-6.05-1.11-7.72-3.26"/>
        <path class="cls-1" d="m34.96,22.09c-3.45,0-6.17-1.15-7.87-3.34l-.11-.15,3.22-2.72.13.14c1.42,1.54,2.95,2.26,4.81,2.26,1.48,0,2.51-.68,2.51-1.65,0-.68-.42-1.15-2.89-2.15-2.21-.9-4.47-2.19-4.47-4.96,0-3.5,3.04-6.04,7.23-6.04,2.86,0,5.07.88,6.77,2.69l.13.14-2.95,2.95-.14-.13c-1.2-1.11-2.36-1.85-4.12-1.85-1.55,0-2.39.83-2.39,1.6s.64,1.18,2.99,2.15c2.27.92,4.37,2.16,4.37,4.96,0,4-3.64,6.09-7.23,6.09m-7.45-3.43c1.65,2.02,4.15,3.04,7.45,3.04s6.84-1.96,6.84-5.7c0-2.43-1.65-3.59-4.13-4.6-2.39-.98-3.23-1.42-3.23-2.51,0-.97.97-1.99,2.77-1.99s3.03.72,4.24,1.82l2.41-2.42c-1.6-1.64-3.68-2.43-6.36-2.43-3.4,0-6.84,1.94-6.84,5.65,0,2.53,2.03,3.71,4.23,4.6,2.46.99,3.13,1.53,3.13,2.51,0,1.2-1.19,2.04-2.9,2.04-1.93,0-3.51-.72-4.97-2.25l-2.65,2.24h0Z"/>
        <polygon class="cls-1" points="48.27 3.93 61.5 3.93 60.56 7.4 51.2 7.4 50.24 11.01 58.46 11.01 57.53 14.43 49.31 14.43 48.29 18.17 57.81 18.17 56.87 21.64 43.51 21.64 48.27 3.93 48.27 3.93"/>
        <path class="cls-1" d="m57.02,21.83h-13.76l.07-.25,4.79-17.85h13.63l-1.04,3.85h-9.36l-.86,3.23h8.22l-1.04,3.8h-8.22l-.91,3.35h9.51l-1.04,3.86h0Zm-13.25-.39h12.95l.83-3.08h-9.51l1.12-4.13h8.22l.83-3.03h-8.22l1.06-4.01h9.36l.83-3.08h-12.83l-4.65,17.32h0Z"/>
        <path class="cls-3" d="m66.5,14.25c0-5.52,4.68-10.63,11.06-10.63,3.74,0,6,1.44,7.24,3.06l-2.88,2.56c-1.04-1.14-2.43-2.05-4.66-2.05-3.79,0-6.7,3.24-6.7,6.93,0,2.76,2.02,4.25,4.53,4.25,1.37,0,2.38-.33,3.16-.68l.84-2.88h-3.92l.91-3.36h7.69l-2.51,8.83c-1.74.99-3.77,1.67-6.43,1.67-4.05,0-8.32-2.4-8.32-7.69"/>
        <path class="cls-3" d="m74.83,22.14c-4.1,0-8.52-2.47-8.52-7.89,0-5.97,5.05-10.82,11.25-10.82,4.12,0,6.29,1.71,7.39,3.14l.11.14-3.16,2.8-.13-.14c-1.23-1.35-2.67-1.99-4.51-1.99-3.59,0-6.51,3.02-6.51,6.74,0,2.46,1.7,4.05,4.33,4.05,1.38,0,2.36-.35,3-.63l.74-2.55h-3.92l1.02-3.75h8.1l-2.6,9.15-.07.04c-2.05,1.16-4.12,1.7-6.52,1.7m2.73-18.32c-5.99,0-10.86,4.68-10.86,10.43,0,5.15,4.21,7.5,8.13,7.5,2.31,0,4.3-.51,6.26-1.61l2.41-8.5h-7.28l-.81,2.98h3.93l-.93,3.22-.08.04c-.67.3-1.73.7-3.24.7-2.83,0-4.72-1.79-4.72-4.44,0-3.93,3.09-7.13,6.9-7.13,1.9,0,3.38.63,4.67,1.97l2.6-2.31c-1.08-1.33-3.14-2.84-6.97-2.84"/>
        <path class="cls-3" d="m89.25,3.93h6.45c2.63,0,4.43.58,5.62,1.77.88.89,1.37,2.13,1.37,3.57,0,1.69-.58,3.16-1.62,4.2-.99.99-2.35,1.72-4.1,2.13l3.01,6.05h-4.43l-2.73-5.67h-2.91l-1.52,5.67h-3.9l4.76-17.71h0Zm5.06,8.6c1.52,0,2.81-.38,3.57-1.14.46-.46.73-1.06.73-1.8,0-.61-.18-1.04-.56-1.42-.48-.48-1.34-.73-2.58-.73h-3.26l-1.37,5.09h3.47Z"/>
        <path class="cls-3" d="m100.29,21.83h-4.86l-2.73-5.67h-2.64l-1.52,5.67h-4.3l.07-.25,4.79-17.85h6.6c2.68,0,4.51.58,5.75,1.83.93.93,1.42,2.21,1.42,3.7,0,1.72-.59,3.26-1.68,4.34-.99.99-2.32,1.71-3.95,2.12l3.04,6.11h0Zm-4.62-.39h3.99l-2.98-5.99.24-.06c1.67-.39,3.02-1.08,4-2.07,1.01-1.01,1.56-2.45,1.56-4.06,0-1.39-.45-2.57-1.31-3.43-1.17-1.17-2.91-1.71-5.48-1.71h-6.3l-4.65,17.32h3.49l1.52-5.67h3.18l2.73,5.67h0Zm-1.36-8.72h-3.72l1.47-5.47h3.41c1.28,0,2.19.27,2.72.79.42.42.61.9.61,1.55,0,.75-.27,1.42-.79,1.93-.77.77-2.09,1.2-3.7,1.2m-3.21-.39h3.21c1.51,0,2.73-.38,3.43-1.08.44-.44.68-1.02.68-1.66,0-.55-.15-.93-.5-1.28-.45-.45-1.27-.68-2.44-.68h-3.11l-1.26,4.7h0Z"/>
        <path class="cls-3" d="m103.89,14.1c0-5.29,4.3-10.47,10.65-10.47,4.88,0,8.1,3.39,8.1,7.84,0,5.29-4.3,10.47-10.65,10.47-4.88,0-8.1-3.39-8.1-7.84m14.7-2.38c0-2.63-1.59-4.5-4.5-4.5-3.72,0-6.15,3.57-6.15,6.63,0,2.63,1.59,4.5,4.5,4.5,3.72,0,6.15-3.57,6.15-6.63"/>
        <path class="cls-3" d="m111.99,22.14c-4.88,0-8.29-3.31-8.29-8.04,0-5.13,4.15-10.67,10.84-10.67,4.88,0,8.29,3.31,8.29,8.04,0,5.13-4.15,10.67-10.85,10.67m2.56-18.32c-6.46,0-10.46,5.34-10.46,10.28,0,4.5,3.25,7.65,7.9,7.65,6.46,0,10.46-5.33,10.46-10.28,0-4.5-3.25-7.65-7.9-7.65m-2.1,14.72c-2.9,0-4.7-1.8-4.7-4.7,0-3.23,2.6-6.82,6.34-6.82,2.9,0,4.7,1.8,4.7,4.7,0,3.23-2.61,6.82-6.34,6.82m1.64-11.13c-3.51,0-5.95,3.39-5.95,6.43,0,2.66,1.65,4.31,4.31,4.31,3.51,0,5.95-3.39,5.95-6.43,0-2.66-1.65-4.31-4.31-4.31"/>
        <path class="cls-3" d="m124.92,15.95c0-.89.15-1.85.43-2.83l2.45-9.18h3.9l-2.56,9.54c-.18.61-.28,1.19-.28,1.92,0,1.75,1.09,2.93,3.09,2.93,1.16,0,2.13-.38,2.88-1.11.76-.76,1.34-1.85,1.72-3.29l2.68-9.99h3.9l-2.83,10.55c-.61,2.28-1.49,4.02-2.73,5.26-1.44,1.44-3.39,2.17-6.02,2.17-4.1,0-6.63-2.2-6.63-5.97"/>
        <path class="cls-3" d="m131.54,22.11c-4.27,0-6.82-2.3-6.82-6.17,0-.89.15-1.86.44-2.89l2.49-9.32h4.3l-2.62,9.78c-.19.65-.27,1.21-.27,1.87,0,1.72,1.08,2.74,2.89,2.74,1.1,0,2.02-.36,2.75-1.06.74-.74,1.31-1.82,1.67-3.2l2.72-10.14h4.3l-2.9,10.79c-.63,2.36-1.54,4.1-2.78,5.35-1.5,1.5-3.52,2.23-6.16,2.23m-3.59-17.99l-2.42,9.04c-.28,1-.42,1.93-.42,2.78,0,3.62,2.4,5.78,6.43,5.78,2.53,0,4.46-.69,5.88-2.12,1.19-1.19,2.07-2.89,2.68-5.17l2.77-10.3h-3.49l-2.64,9.85c-.38,1.44-.98,2.58-1.77,3.38-.8.78-1.82,1.17-3.02,1.17-2.02,0-3.28-1.2-3.28-3.13,0-.7.09-1.29.29-1.98l2.49-9.29h-3.49Z"/>
        <path class="cls-3" d="m146.87,3.93h5.62c2.53,0,4.28.51,5.57,1.8.91.91,1.37,2.1,1.37,3.64,0,4.4-3.77,6.91-8.6,6.91h-3.36l-1.44,5.36h-3.9l4.76-17.71h0Zm4.15,8.93c2.58,0,4.33-1.16,4.33-3.16,0-.58-.2-1.09-.58-1.47-.53-.53-1.26-.78-2.43-.78h-2.53l-1.44,5.41h2.66Z"/>
        <g class="cls-5">
          <path class="cls-3" d="m146.16,21.83h-4.3l.07-.25,4.79-17.85h5.77c2.66,0,4.42.57,5.7,1.85.96.96,1.42,2.19,1.42,3.78,0,4.25-3.53,7.1-8.8,7.1h-3.22l-1.44,5.36h0Zm-3.79-.39h3.49l1.44-5.36h3.51c5.03,0,8.41-2.7,8.41-6.71,0-1.48-.43-2.62-1.31-3.51-1.2-1.2-2.88-1.74-5.43-1.74h-5.47l-4.65,17.32h0Zm8.65-8.39h-2.91l1.55-5.8h2.68c1.19,0,1.98.26,2.57.84.42.42.64.97.64,1.6,0,2.07-1.73,3.36-4.52,3.36m-2.4-.39h2.4c2.55,0,4.13-1.14,4.13-2.97,0-.53-.18-.99-.52-1.33-.5-.5-1.21-.73-2.29-.73h-2.38l-1.34,5.02h0Z"/>
          <polygon class="cls-3" points=".81 16.66 0 21.23 4.82 21.23 25.34 2.55 .81 16.66 .81 16.66"/>
          <polygon class="cls-3" points="2.53 6.89 1.67 11.78 27.47 0 2.53 6.89 2.53 6.89"/>
        </g>
        <polygon class="cls-3" points="10.59 21.23 15.54 21.23 22.68 7.02 10.59 21.23 10.59 21.23"/>
      </g>
    </g>
  </g>
</svg>